# xmcd
# 
# Track frame offsets:
#     182
#     28095
#     49147
#     91225
#     115607
#     152940
#     163282
#     184995
#     248815
#     288977
#     305770
#     322027
#     344562
# 
# Disc length: 4716
# 
# Revision: 1
# Processed by: cddbd v1.5.2PL0 Copyright (c) Steve Scherf et al.
# Submitted via: fre:ac v1.0.31
# 
DISCID=c0126a0d
DTITLE=Chicken Shack - Private Collection vol 1
DYEAR=0
DGENRE=blues
TTITLE0=Tell me
TTITLE1=I'd rather go blind
TTITLE2=Going up, going down/My baby she's good
TTITLE3=Daughter of the hillside
TTITLE4=Dr Brown-Jerry Lee thing-Reconsider baby
TTITLE5=Too late to cry
TTITLE6=Going down
TTITLE7=Poor boy
TTITLE8=What you did last night
TTITLE9=Borderline
TTITLE10=Trust no-one
TTITLE11=Quit pounding at my gate
TTITLE12=Am I making it
EXTD=
EXTT0=
EXTT1=
EXTT2=
EXTT3=
EXTT4=
EXTT5=
EXTT6=
EXTT7=
EXTT8=
EXTT9=
EXTT10=
EXTT11=
EXTT12=
PLAYORDER=
